grf
version=1
nRows=65
nColumns=19
inDegrees=yes
endheader
time	ground_force_1_vx	ground_force_1_vy	ground_force_1_vz	ground_force_1_px	ground_force_1_py	ground_force_1_pz	ground_moment_1_mx	ground_moment_1_my	ground_moment_1_mz	ground_force_2_vx	ground_force_2_vy	ground_force_2_vz	ground_force_2_px	ground_force_2_py	ground_force_2_pz	ground_moment_2_mx	ground_moment_2_my	ground_moment_2_mz
0.000000	2.113656	417.050966	-60.422298	0.170394	0.000000	-1.016591	0.000000	5.103563	0.000000	-5.832983	457.743120	67.679988	0.186522	0.000000	-1.445751	-0.000000	-4.299512	-0.000000
0.001000	2.128009	417.250964	-60.396278	0.171937	0.000000	-1.010010	0.000000	5.091310	0.000000	-5.842207	457.379936	67.741282	0.183534	0.000000	-1.445102	-0.000000	-4.311109	-0.000000
0.002000	2.140110	417.456159	-60.371013	0.171437	0.000000	-1.009930	0.000000	5.079285	0.000000	-5.849805	457.032836	67.799223	0.184275	0.000000	-1.445421	-0.000000	-4.322483	-0.000000
0.003000	2.149509	417.662565	-60.347025	0.172625	0.000000	-1.012274	0.000000	5.067647	0.000000	-5.855507	456.705163	67.853703	0.186018	0.000000	-1.442791	-0.000000	-4.333525	-0.000000
0.004000	2.155832	417.866323	-60.324763	0.171334	0.000000	-1.016876	0.000000	5.056539	0.000000	-5.859069	456.399469	67.904550	0.185539	0.000000	-1.445341	-0.000000	-4.344174	-0.000000
0.005000	2.158767	418.063606	-60.304582	0.170621	0.000000	-1.015085	0.000000	5.046067	0.000000	-5.860346	456.118126	67.951531	0.186163	0.000000	-1.442424	0.000000	-4.354383	-0.000000
0.006000	2.158070	418.250794	-60.286745	0.170839	0.000000	-1.007021	-0.000000	5.036295	0.000000	-5.859317	455.863477	67.994420	0.186977	0.000000	-1.445241	0.000000	-4.364100	-0.000000
0.007000	2.153585	418.424652	-60.271464	0.172054	0.000000	-1.010393	-0.000000	5.027261	0.000000	-5.856060	455.637518	68.033059	0.184857	0.000000	-1.445872	0.000000	-4.373281	-0.000000
0.008000	2.145302	418.582328	-60.258913	0.173001	0.000000	-1.018490	-0.000000	5.018988	0.000000	-5.850723	455.441528	68.067386	0.185072	0.000000	-1.440933	0.000000	-4.381893	-0.000000
0.009000	2.133413	418.721536	-60.249208	0.173621	0.000000	-1.009559	-0.000000	5.011507	0.000000	-5.843522	455.275821	68.097383	0.184573	0.000000	-1.443417	0.000000	-4.389911	-0.000000
0.010000	2.118283	418.840919	-60.242412	0.171338	0.000000	-1.008353	-0.000000	5.004846	0.000000	-5.834720	455.139704	68.123045	0.186234	0.000000	-1.445536	0.000000	-4.397309	-0.000000
0.011000	2.100380	418.940307	-60.238501	0.173058	0.000000	-1.012231	-0.000000	4.999025	0.000000	-5.824628	455.031643	68.144404	0.185420	0.000000	-1.444161	0.000000	-4.404048	-0.000000
0.012000	2.080252	419.020607	-60.237331	0.171938	0.000000	-1.011168	-0.000000	4.994037	0.000000	-5.813633	454.949567	68.161536	0.184802	0.000000	-1.448148	0.000000	-4.410082	-0.000000
0.013000	2.058544	419.083347	-60.238665	0.172251	0.000000	-1.008614	-0.000000	4.989862	0.000000	-5.802224	454.891148	68.174522	0.182110	0.000000	-1.446040	0.000000	-4.415372	-0.000000
0.014000	2.035946	419.130435	-60.242241	0.173157	0.000000	-1.011493	-0.000000	4.986456	0.000000	-5.790965	454.853803	68.183403	0.185120	0.000000	-1.442596	0.000000	-4.419919	-0.000000
0.015000	2.013012	419.164165	-60.247817	0.165848	0.000000	-1.017773	-0.000000	4.983735	0.000000	-5.780420	454.834418	68.188241	0.184607	0.000000	-1.441693	0.000000	-4.423775	-0.000000
0.016000	1.990019	419.186714	-60.255192	0.169522	0.000000	-1.006669	-0.000000	4.981580	0.000000	-5.771069	454.829287	68.189244	0.186296	0.000000	-1.443719	0.000000	-4.427027	-0.000000
0.017000	1.967055	419.199678	-60.264225	0.171653	0.000000	-1.010912	-0.000000	4.979887	0.000000	-5.763211	454.834288	68.186842	0.184325	0.000000	-1.443220	0.000000	-4.429756	-0.000000
0.018000	1.944202	419.204164	-60.274792	0.168198	0.000000	-1.017452	-0.000000	4.978592	0.000000	-5.756907	454.845035	68.181620	0.186010	0.000000	-1.443679	0.000000	-4.432012	-0.000000
0.019000	1.921548	419.200685	-60.286721	0.173823	0.000000	-1.008086	-0.000000	4.977655	0.000000	-5.752045	454.857371	68.174193	0.189484	0.000000	-1.447462	0.000000	-4.433818	-0.000000
0.020000	1.899146	419.189106	-60.299777	0.172925	0.000000	-1.008520	-0.000000	4.977048	0.000000	-5.748349	454.868255	68.165132	0.184179	0.000000	-1.440281	0.000000	-4.435199	-0.000000
0.021000	1.877004	419.169223	-60.313677	0.172131	0.000000	-1.011444	-0.000000	4.976745	0.000000	-5.745367	454.876138	68.154939	0.185536	0.000000	-1.446372	0.000000	-4.436203	-0.000000
0.022000	1.855111	419.141173	-60.328107	0.172503	0.000000	-1.010438	-0.000000	4.976729	0.000000	-5.742592	454.880423	68.144013	0.185850	0.000000	-1.444009	0.000000	-4.436895	-0.000000
0.023000	1.833476	419.105266	-60.342754	0.171593	0.000000	-1.010908	-0.000000	4.976988	0.000000	-5.739623	454.880903	68.132592	0.187404	0.000000	-1.445465	0.000000	-4.437360	-0.000000
0.024000	1.812149	419.061745	-60.357331	0.172514	0.000000	-1.010083	-0.000000	4.977520	0.000000	-5.736206	454.877688	68.120736	0.184670	0.000000	-1.443465	0.000000	-4.437687	-0.000000
0.025000	1.791142	419.010755	-60.371565	0.173224	0.000000	-1.011318	-0.000000	4.978318	0.000000	-5.732198	454.871194	68.108378	0.185759	0.000000	-1.444472	0.000000	-4.437962	-0.000000
0.026000	1.770305	418.952570	-60.385216	0.173026	0.000000	-1.012050	-0.000000	4.979369	0.000000	-5.727525	454.861856	68.095368	0.186154	0.000000	-1.441893	0.000000	-4.438252	-0.000000
0.027000	1.749324	418.887897	-60.398157	0.174016	0.000000	-1.008862	-0.000000	4.980660	0.000000	-5.722170	454.849670	68.081519	0.187605	0.000000	-1.446965	0.000000	-4.438604	-0.000000
0.028000	1.727935	418.817907	-60.410420	0.172017	0.000000	-1.010826	-0.000000	4.982172	0.000000	-5.716198	454.833888	68.066685	0.185251	0.000000	-1.442782	0.000000	-4.439041	-0.000000
0.029000	1.706093	418.743827	-60.422076	0.168734	0.000000	-1.009103	-0.000000	4.983856	0.000000	-5.709790	454.813025	68.050812	0.185049	0.000000	-1.446044	0.000000	-4.439567	-0.000000
0.030000	1.683978	418.666417	-60.433081	0.173090	0.000000	-1.013790	-0.000000	4.985649	0.000000	-5.703221	454.784918	68.033896	0.184902	0.000000	-1.446220	0.000000	-4.440176	-0.000000
0.031000	1.661907	418.586067	-60.443226	0.173000	0.000000	-1.011082	-0.000000	4.987489	0.000000	-5.696808	454.746652	68.015945	0.187760	0.000000	-1.449295	0.000000	-4.440858	-0.000000
0.032000	1.640279	418.503607	-60.452212	0.171260	0.000000	-1.012026	-0.000000	4.989324	0.000000	-5.690834	454.694803	67.997003	0.187539	0.000000	-1.447760	0.000000	-4.441615	-0.000000
0.033000	1.619568	418.420818	-60.459714	0.172487	0.000000	-1.013333	-0.000000	4.991104	0.000000	-5.685498	454.626300	67.977175	0.185545	0.000000	-1.445527	0.000000	-4.442459	-0.000000
0.034000	1.600309	418.340214	-60.465434	0.173589	0.000000	-1.006911	-0.000000	4.992788	0.000000	-5.680948	454.539149	67.956618	0.185099	0.000000	-1.445491	0.000000	-4.443394	-0.000000
0.035000	1.583061	418.264524	-60.469130	0.173173	0.000000	-1.010227	-0.000000	4.994340	0.000000	-5.677330	454.432433	67.935515	0.185261	0.000000	-1.445547	0.000000	-4.444395	-0.000000
0.036000	1.568339	418.196104	-60.470613	0.169521	0.000000	-1.016667	-0.000000	4.995728	0.000000	-5.674773	454.306118	67.914068	0.185165	0.000000	-1.445208	0.000000	-4.445421	-0.000000
0.037000	1.556510	418.136236	-60.469730	0.170900	0.000000	-1.013643	-0.000000	4.996931	0.000000	-5.673370	454.161106	67.892493	0.185358	0.000000	-1.444090	0.000000	-4.446419	-0.000000
0.038000	1.547725	418.084754	-60.466367	0.172971	0.000000	-1.009560	-0.000000	4.997959	0.000000	-5.673168	453.999255	67.871012	0.185434	0.000000	-1.442761	0.000000	-4.447342	-0.000000
0.039000	1.541962	418.040654	-60.460451	0.173915	0.000000	-1.010451	-0.000000	4.998842	0.000000	-5.674118	453.823230	67.849862	0.186274	0.000000	-1.444910	0.000000	-4.448169	-0.000000
0.040000	1.539112	418.003402	-60.451952	0.172751	0.000000	-1.008273	-0.000000	4.999623	0.000000	-5.676009	453.636323	67.829307	0.185134	0.000000	-1.444742	0.000000	-4.448911	-0.000000
0.041000	1.538973	417.973624	-60.440884	0.171047	0.000000	-1.012057	0.000000	5.000334	0.000000	-5.678518	453.442536	67.809612	0.186307	0.000000	-1.447664	0.000000	-4.449590	-0.000000
0.042000	1.541218	417.952694	-60.427339	0.172992	0.000000	-1.008977	0.000000	5.001000	0.000000	-5.681320	453.246729	67.790993	0.181093	0.000000	-1.442418	0.000000	-4.450222	-0.000000
0.043000	1.545416	417.942086	-60.411513	0.172919	0.000000	-1.011121	0.000000	5.001643	0.000000	-5.684154	453.053973	67.773609	0.184900	0.000000	-1.441250	0.000000	-4.450820	-0.000000
0.044000	1.551109	417.943361	-60.393683	0.174214	0.000000	-1.008463	0.000000	5.002278	0.000000	-5.686828	452.868515	67.757589	0.184875	0.000000	-1.441960	0.000000	-4.451398	-0.000000
0.045000	1.557847	417.958464	-60.374139	0.176455	0.000000	-1.016186	0.000000	5.002906	0.000000	-5.689184	452.693489	67.743019	0.185317	0.000000	-1.442342	0.000000	-4.451967	-0.000000
0.046000	1.565179	417.989333	-60.353175	0.175147	0.000000	-1.019298	0.000000	5.003501	0.000000	-5.691024	452.531340	67.729863	0.186329	0.000000	-1.444927	0.000000	-4.452544	-0.000000
0.047000	1.572625	418.036902	-60.331127	0.171418	0.000000	-1.011862	0.000000	5.004012	0.000000	-5.692106	452.384375	67.717937	0.186035	0.000000	-1.443939	0.000000	-4.453148	-0.000000
0.048000	1.579683	418.100518	-60.308391	0.170363	0.000000	-1.012228	0.000000	5.004359	0.000000	-5.692215	452.255362	67.706981	0.186803	0.000000	-1.444729	0.000000	-4.453774	-0.000000
0.049000	1.585845	418.178215	-60.285421	0.171616	0.000000	-1.010325	0.000000	5.004461	0.000000	-5.691198	452.147634	67.696762	0.181208	0.000000	-1.441635	0.000000	-4.454386	-0.000000
0.050000	1.590607	418.267459	-60.262717	0.173088	0.000000	-1.012204	0.000000	5.004255	0.000000	-5.688964	452.064032	67.687079	0.185047	0.000000	-1.439192	0.000000	-4.454923	-0.000000
0.051000	1.593466	418.365787	-60.240757	0.172301	0.000000	-1.006119	0.000000	5.003691	0.000000	-5.685527	452.005810	67.677736	0.185786	0.000000	-1.443496	0.000000	-4.455322	-0.000000
0.052000	1.593922	418.471050	-60.219928	0.175586	0.000000	-1.008124	0.000000	5.002704	0.000000	-5.681041	451.972983	67.668545	0.184178	0.000000	-1.444343	0.000000	-4.455530	-0.000000
0.053000	1.591547	418.581224	-60.200485	0.172779	0.000000	-1.009520	0.000000	5.001225	0.000000	-5.675710	451.965382	67.659361	0.185895	0.000000	-1.445078	0.000000	-4.455525	-0.000000
0.054000	1.586065	418.693823	-60.182536	0.170343	0.000000	-1.018468	0.000000	4.999213	0.000000	-5.669643	451.983192	67.650094	0.185196	0.000000	-1.441086	0.000000	-4.455323	-0.000000
0.055000	1.577350	418.805349	-60.166100	0.172620	0.000000	-1.009573	0.000000	4.996652	0.000000	-5.662858	452.026965	67.640713	0.181869	0.000000	-1.438323	0.000000	-4.454960	-0.000000
0.056000	1.565365	418.911300	-60.151181	0.173943	0.000000	-1.007172	0.000000	4.993542	0.000000	-5.655374	452.097243	67.631289	0.183341	0.000000	-1.444430	0.000000	-4.454496	-0.000000
0.057000	1.550124	419.006914	-60.137838	0.173658	0.000000	-1.010206	0.000000	4.989898	0.000000	-5.647240	452.193980	67.622018	0.186834	0.000000	-1.436719	0.000000	-4.454024	-0.000000
0.058000	1.531696	419.088121	-60.126207	0.171708	0.000000	-1.008266	0.000000	4.985756	0.000000	-5.638561	452.316048	67.613130	0.186318	0.000000	-1.444357	-0.000000	-4.453655	-0.000000
0.059000	1.510229	419.151959	-60.116478	0.173395	0.000000	-1.010830	0.000000	4.981154	0.000000	-5.629533	452.461070	67.604738	0.185163	0.000000	-1.444452	-0.000000	-4.453462	-0.000000
0.060000	1.485956	419.196343	-60.108824	0.172581	0.000000	-1.008243	0.000000	4.976129	0.000000	-5.620442	452.625798	67.596764	0.184638	0.000000	-1.444854	-0.000000	-4.453445	-0.000000
0.061000	1.459230	419.219661	-60.103290	0.172823	0.000000	-1.008845	0.000000	4.970750	0.000000	-5.611601	452.806587	67.589051	0.185273	0.000000	-1.442204	-0.000000	-4.453557	-0.000000
0.062000	1.430561	419.220646	-60.099703	0.175308	0.000000	-1.011913	0.000000	4.965152	0.000000	-5.603270	452.999497	67.581532	0.186333	0.000000	-1.443738	-0.000000	-4.453753	-0.000000
0.063000	1.400583	419.198582	-60.097699	0.172733	0.000000	-1.010184	0.000000	4.959510	0.000000	-5.595577	453.200443	67.574269	0.186193	0.000000	-1.442388	-0.000000	-4.454008	-0.000000
0.064000	1.369963	419.153464	-60.096863	0.173248	0.000000	-1.011289	0.000000	4.953981	0.000000	-5.588482	453.405815	67.567418	0.185563	0.000000	-1.444614	-0.000000	-4.454324	-0.000000
